<svg width="57" height="57" viewBox="0 0 57 57" fill="none" xmlns="http://www.w3.org/2000/svg">
<path d="M28.3577 56.7154C44.0192 56.7154 56.7154 44.0192 56.7154 28.3577C56.7154 12.6962 44.0192 0 28.3577 0C12.6962 0 0 12.6962 0 28.3577C0 44.0192 12.6962 56.7154 28.3577 56.7154ZM21.2683 17.7236C21.2683 13.8082 24.4423 10.6341 28.3577 10.6341C32.2731 10.6341 35.4471 13.8082 35.4471 17.7236C35.4471 21.639 32.2731 24.813 28.3577 24.813C24.4423 24.813 21.2683 21.639 21.2683 17.7236ZM19.4959 28.3577L37.2195 28.3577C40.156 28.3577 42.5366 30.7382 42.5366 33.6748C42.5366 37.631 40.9097 40.8006 38.2399 42.9435C35.6123 45.0526 32.0906 46.0813 28.3577 46.0813C24.6249 46.0813 21.1032 45.0526 18.4756 42.9435C15.8058 40.8006 14.1789 37.631 14.1789 33.6748C14.1789 30.7384 16.5594 28.3577 19.4959 28.3577Z" fill="#BDBDBD"/>
</svg>
